<svg xmlns="http://www.w3.org/2000/svg" viewBox="0 0 200 200" width="200" height="200">
  <g transform="translate(0 8)">
    <path d="M100 16 L100 60 M27.3 142 L65.4 120 M172.7 142 L134.6 120" stroke="#14161a" stroke-opacity="0.22" stroke-width="2.6" fill="none"></path>
    <path d="M100 16 L27.3 58 L27.3 142 L100 184 L172.7 142 L172.7 58 Z" stroke="#14161a" stroke-opacity="0.62" stroke-width="2.6" fill="none" stroke-linejoin="miter"></path>
    <path d="M100 60 L65.4 80 L100 100 L134.6 80 Z" fill="#232528"></path>
    <path d="M65.4 80 L65.4 120 L100 140 L100 100 Z" fill="#6a6c70"></path>
    <path d="M100 140 L134.6 120 L134.6 80 L100 100 Z" fill="#9b9da1"></path>
    <path d="M27.3 58 L100 100 M100 184 L100 100 M172.7 58 L100 100" stroke="#14161a" stroke-opacity="0.55" stroke-width="2.6" fill="none"></path>
  </g>
</svg>